<svg xmlns="http://www.w3.org/2000/svg" viewBox="0 0 48 48">
  <path d="M20 2.3094C22.4752 0.880339 25.5248 0.880339 28 2.3094L40.7846 9.6906C43.2598 11.1197 44.7846 13.7607 44.7846 16.6188V31.3812C44.7846 34.2393 43.2598 36.8803 40.7846 38.3094L28 45.6906C25.5248 47.1197 22.4752 47.1197 20 45.6906L7.21539 38.3094C4.74018 36.8803 3.21539 34.2393 3.21539 31.3812V16.6188C3.21539 13.7607 4.74018 11.1197 7.21539 9.6906L20 2.3094Z" fill="#FFFFFF"/>
  <rect x="22" y="18" width="4" height="12" rx="2" fill="#272B30"/>
  <rect x="14" y="20" width="4" height="8" rx="2" fill="url(#paint0_linear_1519_58270)"/>
  <rect x="30" y="20" width="4" height="8" rx="2" fill="url(#paint1_linear_1519_58270)"/>
</svg>

